<?xml version="1.0" encoding="UTF-8"?><svg id="Capa_2" xmlns="http://www.w3.org/2000/svg" viewBox="0 0 1000 460.91"><defs><style>.cls-1{fill:#1d71b8;}.cls-1,.cls-2{stroke-width:0px;}.cls-2{fill:#e94e1b;}</style></defs><g id="Capa_1-2"><path class="cls-2" d="M93.44,316.39c-3.6-3.6-9.07-7.87-14.91-10.61-5.98-2.75-13.02-4.46-19.68-4.46-26.35,0-45.86,21.23-45.86,47.58,0,30.99,25.15,46.55,46.03,46.55,7.7,0,15.22-2.23,21.23-5.29,6.49-3.26,11.13-7.52,13.19-9.58v15.74c-12.67,9.07-25.84,11.13-34.39,11.13-33.88,0-59.05-25.66-59.05-58.71s25.49-59.4,59.74-59.4c6.84,0,20.03.86,33.73,11.3v15.74l-.03.03Z"/><path class="cls-2" d="M97.45,348.15c0-34.05,26.52-59.05,59.4-59.05s59.4,24.98,59.4,59.05-26.35,59.05-59.4,59.05-59.4-25.15-59.4-59.05ZM110.47,348.15c0,26.18,20.71,47.06,46.38,47.06s46.38-20.89,46.38-47.06-20.71-47.06-46.38-47.06-46.38,20.89-46.38,47.06Z"/><path class="cls-2" d="M221.3,405.4l19-120.48,43.8,96.36,44.66-96.53,17.8,120.65h-13.02l-10.79-79.42-38.85,84.2-38.34-84.2-11.3,79.42h-13.02.06Z"/><path class="cls-2" d="M414.71,303.23h-39.37v33.7h37.99v11.99h-37.99v56.48h-12.65v-114.16h52.01v11.99Z"/><path class="cls-2" d="M530.33,308.9c-10.84-12.36-26.92-19.8-44.83-19.8-12.82,0-24.75,3.81-34.45,10.53-15.14,10.39-24.98,27.81-24.98,48.58,0,33.85,26.38,59.02,59.42,59.02s59.37-25.18,59.37-59.02c0-15.54-5.49-29.04-14.51-39.28l-.03-.03ZM485.49,395.19c-25.72,0-46.41-20.83-46.41-47.01,0-16.48,8.21-30.93,20.77-39.28,7.32-4.95,16.14-7.81,25.64-7.81s18.25,2.86,25.58,7.81c12.56,8.35,20.77,22.8,20.77,39.28,0,26.18-20.69,47.01-46.32,47.01h-.03Z"/><path class="cls-2" d="M576.28,291.24c7.7,0,19.17.51,27.72,6.32,6.67,4.46,12.5,13.19,12.5,25.32,0,17.45-11.47,30.3-28.75,31.5l36.28,51.01h-15.39l-34.73-49.98h-3.23v49.98h-12.67v-114.16h18.31-.03ZM570.64,344.12h8.04c15.74,0,25.15-7.52,25.15-20.89,0-6.32-1.89-12.67-9.07-16.77-5.12-2.92-10.96-3.26-16.42-3.26h-7.7v40.91h0Z"/><path class="cls-2" d="M661.68,303.23v102.17h-12.67v-102.17h-27.72v-11.99h68.12v11.99h-27.72Z"/><path class="cls-1" d="M747.05,353.93v-15.56c0-23.23-3.63-31.96-16.62-31.96-7.47,0-13.42,2.55-13.42,8.3,0,1.29.2,2.78.63,4.26h5.75c1.06,2.78,1.72,5.55,1.72,8.96,0,8.96-6.61,14.28-15.34,14.28-10.21,0-14.91-6.18-14.91-15.56,0-16.62,16.39-25.35,40.68-25.35,29.61,0,41.34,9.38,41.34,40.28v41.97c0,8.96,2.55,11.93,6.61,11.93,4.26,0,7.04-3.4,8.53-20.46l4.89.43c-1.06,23.43-8.1,31.53-24.72,31.53-14.28,0-22.17-5.12-24.29-15.14-4.69,10.01-13.65,15.14-27.27,15.14-15.56,0-30.47-5.32-30.47-25.35,0-21.94,18.54-27.7,47.32-27.7h9.58-.03ZM747.05,376.93v-17.68h-4.89c-15.34,0-20.89,7.47-20.89,21.74,0,12.56,3.2,16.82,10.24,16.82,7.67,0,15.56-7.67,15.56-20.89h-.03Z"/><path class="cls-1" d="M848.94,375.24c-5.75,0-11.5-.86-15.99-1.72-7.67,5.12-11.3,8.73-11.3,10.87s2.12,3.2,10.64,3.2h25.35c24.49,0,45.61,5.32,45.61,33.02,0,23.23-15.76,40.28-59.02,40.28-33.25,0-48.38-8.96-48.38-23.86,0-11.07,8.73-15.14,15.99-17.05l9.38,5.12c-1.72,4.03-2.15,7.9-2.15,11.3,0,10.01,6.61,18.97,29.41,18.97,24.72,0,37.71-10.01,37.71-24.29,0-11.93-7.04-16.42-28.98-16.42h-24.09c-20.23,0-26.87-8.1-26.87-17.05,0-9.81,6.81-15.96,20.69-25.78-14.71-5.12-21.09-15.76-21.09-31.76,0-19.4,13.22-36.02,43.26-36.02,7.67,0,14.91,1.49,21.31,4.89-1.06-15.96,6.38-31.53,23.23-31.53,9.16,0,15.99,5.75,15.99,14.71,0,6.38-4.69,12.36-11.73,12.36-5.75,0-9.81-3.63-11.07-6.61l5.12-5.98c-.43-3.4-2.35-5.32-5.98-5.32-4.89,0-10.01,5.55-10.01,20.03,0,1.92,0,3.63.23,5.55,8.1,5.98,13.42,14.28,13.42,26.64,0,23-15.99,36.45-40.68,36.45h0ZM848.31,369.49c8.73,0,13.65-4.89,13.65-29.61s-4.46-30.67-13.42-30.67-14.48,5.32-14.48,30.9c0,23.86,4.89,29.41,14.28,29.41l-.03-.03Z"/><path class="cls-1" d="M957.6,301.32c29.41,0,43.46,16.62,42.2,48.58h-63.09v5.75c0,27.7,5.75,43.69,27.49,43.69,16.19,0,25.78-9.58,30.04-25.58l5.75.86c-4.26,17.91-15.14,32.39-43.89,32.39-35.16,0-51.13-21.31-51.13-52.21,0-37.08,23-53.47,52.64-53.47h-.03ZM970.39,344.15c.43-27.07-2.35-37.71-15.14-37.71-11.93,0-17.91,9.81-18.54,37.71h33.67Z"/><path class="cls-2" d="M530.5,30.11c-.6.14-1.26.2-1.83.31-.06,0-.2.06-.4.14-19.14,6.04-34.93,19.8-43.52,37.68-.06.06-.06.14-.14.2-3.2,8.58-5.04,18.94-5.04,31.47,0,3.09-.46,6.15-1.57,9.04-.26.46-.46.97-.66,1.43l-14.16,28.52c-1.12,2.17.4,4.78,2.83,4.92l10.3.72-.06,31.47c-.8,9.96,7.15,18.48,17.11,18.48l13.19-.06c6.55,0,11.73,9.38,15.22,18.68,3.55,9.44,5.04,19.46,5.04,29.55-.06,14.42.92,25.12.92,25.12h-.97c-10.5-11.93-26.04-19.14-43.35-19.14-12.39,0-23.92,3.66-33.3,10.16-3.15-13.25-10.21-36.39-21.69-36.39l-16.25.06c-12.33,0-22.03-10.56-21.11-22.89l.06-38.74-12.65-.86c-3-.2-4.86-3.4-3.46-6.09l17.42-35.13c.26-.66.51-1.26.77-1.83,1.37-3.55,1.97-7.35,1.97-11.16,0-15.39,2.23-28.18,6.24-38.74.06-.14.06-.2.2-.26,10.56-22.09,30.1-39.08,53.7-46.49.14-.06.31-.2.4-.2,14.62-3.55,28.64-3.81,38.42-3.29,4.38.51,8.64,1.37,12.85,2.63,8.47,2.35,16.39,5.98,23.6,10.61l-.09.06Z"/><path class="cls-1" d="M512.45,66.05h0c15.42,0,27.92,12.5,27.92,27.92h0c-15.42,0-27.92-12.5-27.92-27.92h0Z"/><path class="cls-2" d="M530.41,61.66h0c11.06-15.8,32.87-19.67,48.69-8.6h0c-11.06,15.8-32.87,19.67-48.69,8.6h0Z"/><path class="cls-1" d="M548.99,0h0c3.66,28.58-16.58,54.76-45.16,58.43h0C500.18,29.85,520.42,3.66,548.99,0h0Z"/></g></svg>
